# xmcd
#
# Track frame offsets: 
#        150
#        28579
#        66908
#        74262
#        139967
#        208522
#        238001
#        280756
#        305960
#
# Disc length: 4539 seconds
#
# Revision: 0
# Processed by: cddbd v1.5.2PL0 Copyright (c) Steve Scherf et al.
# Submitted via: ExactAudioCopy v0.95b3
#
DISCID=8c11b909
DTITLE=Blind Faith  - The Morgan Rehearsals - Disc 1
DYEAR=1900
DGENRE=
TTITLE0=Instrumental Jams
TTITLE1=Instrumental Jams
TTITLE2=Instrumental Jams
TTITLE3=Instrumental Jams
TTITLE4=Instrumental Jams (Vocals By Ginger Baker)
TTITLE5=Instrumental Jams
TTITLE6=Instrumental Jams
TTITLE7=Instrumental Jams
TTITLE8=Well Allright (Take 1)
EXTD=
EXTT0=
EXTT1=
EXTT2=
EXTT3=
EXTT4=
EXTT5=
EXTT6=
EXTT7=
EXTT8=
PLAYORDER=
